<svg xmlns="http://www.w3.org/2000/svg" viewBox="0 0 24 24" fill="currentColor">
    <path d="M9 5a1 1 0 0 0 0 2h6a1 1 0 0 0 0-2H9Z"/>
    <path fill-rule="evenodd"
          d="M4 4a3 3 0 0 1 3-3h10a3 3 0 0 1 3 3v16a3 3 0 0 1-3 3H7a3 3 0 0 1-3-3V4Zm3-1a1 1 0 0 0-1 1v16a1 1 0 0 0 1 1h10a1 1 0 0 0 1-1V4a1 1 0 0 0-1-1H7Z"
          clip-rule="evenodd"/>
    <path d="M7.5 12.5a.75.75 0 0 1 .75-.75h.5a.75.75 0 0 1 0 1.5h-.5a.75.75 0 0 1-.75-.75ZM7.5 16a.75.75 0 0 1 .75-.75h.5a.75.75 0 0 1 0 1.5h-.5A.75.75 0 0 1 7.5 16ZM10.75 11.75a.75.75 0 0 0 0 1.5h5.5a.75.75 0 0 0 0-1.5h-5.5ZM10.75 15.25a.75.75 0 0 0 0 1.5h5.5a.75.75 0 0 0 0-1.5h-5.5Z"/>
</svg>
